<?xml version="1.0" standalone="no"?>
<svg version="1.1" xmlns="http://www.w3.org/2000/svg" xmlns:xlink="http://www.w3.org/1999/xlink" x="0px" y="0px" width="1469px" height="178px" viewBox="0 0 1469 178" enable-background="new 0 0 1469 178" xml:space="preserve"><polygon fill="#FFFFFF" points="1469,178 0,178 0,0 1469,0"/><path xmlns="http://www.w3.org/2000/svg" fill="#141412" font-weight="bold" d="M88.09 129.04Q75.99 129.04 66.36 123.92Q56.74 118.81 51.24 109.68Q45.74 100.55 45.74 89L45.74 89Q45.74 77.45 51.24 68.32Q56.74 59.19 66.36 54.08Q75.99 48.96 88.09 48.96L88.09 48.96Q98.65 48.96 107.12 52.70Q115.59 56.44 121.20 63.48L121.20 63.48L107.34 76.02Q99.86 67 89.19 67L89.19 67Q82.92 67 78.03 69.75Q73.13 72.50 70.44 77.50Q67.74 82.51 67.74 89L67.74 89Q67.74 95.49 70.44 100.50Q73.13 105.50 78.03 108.25Q82.92 111 89.19 111L89.19 111Q99.86 111 107.34 101.98L107.34 101.98L121.20 114.52Q115.59 121.56 107.12 125.30Q98.65 129.04 88.09 129.04L88.09 129.04ZM152.44 110.67L192.70 110.67L192.70 127.50L130.88 127.50L130.88 50.50L191.27 50.50L191.27 67.33L152.44 67.33L152.44 80.31L186.65 80.31L186.65 96.59L152.44 96.59L152.44 110.67ZM260.24 50.50L281.80 50.50L248.80 127.50L227.35 127.50L194.46 50.50L218.00 50.50L238.90 100.66L260.24 50.50ZM286.31 127.50L286.31 50.50L308.09 50.50L308.09 127.50L286.31 127.50Z"/><g><path fill="#323394" d="M334.931,73.371c-0.181-0.641-0.267-1.301-0.327-1.85l12.602,12.581 C340.397,81.64,336.158,81.975,334.931,73.371"/><path fill="#c41333" d="M415.722,115.954c-8.831,2.554-17.685,4.158-26.022,4.703l31.227,31.223l11.095-41.367 C427.111,112.417,421.689,114.222,415.722,115.954"/><path fill="#c41333" d="M443.51,64.399c-11.379,7.401-25.311,13.781-38.275,17.489c-17.806,5.161-35.959,6.776-49.823,4.384 l-21.157-21.185l117.507-31.565L443.51,64.399"/><path fill="#323394" d="M460.756,86.589c-8.896,10.981-23.162,18.734-46.193,25.432c-23.495,6.697-46.936,6.516-59.736-0.58 c-4.496-2.516-7.312-5.601-8.392-9.293l-6.739-16.765c0.268,0.129,0.535,0.267,0.766,0.5c13.803,7.585,39.672,7.634,65.947,0.128 c21.021-6.073,43.057-18.351,54.348-30.131V86.589"/><path fill="#323394" d="M420.924,37.621l-82.082,21.879c8.453-12.008,28.283-23.847,51.221-30.49 c6.447-1.871,20.849-4.191,30.861-3.807V37.621"/></g><path xmlns="http://www.w3.org/2000/svg" fill="#141412" font-weight="bold" d="M541.33 127.50L527.36 107.04L515.48 107.04L515.48 127.50L493.70 127.50L493.70 50.50L528.90 50.50Q539.35 50.50 547.05 53.97Q554.75 57.43 558.93 63.87Q563.11 70.30 563.11 78.99L563.11 78.99Q563.11 87.35 559.21 93.56Q555.30 99.78 548.04 103.30L548.04 103.30L564.65 127.50L541.33 127.50ZM541.11 78.99Q541.11 73.60 537.70 70.63Q534.29 67.66 527.58 67.66L527.58 67.66L515.48 67.66L515.48 90.21L527.58 90.21Q534.29 90.21 537.70 87.30Q541.11 84.38 541.11 78.99L541.11 78.99ZM596.66 110.67L636.92 110.67L636.92 127.50L575.10 127.50L575.10 50.50L635.49 50.50L635.49 67.33L596.66 67.33L596.66 80.31L630.87 80.31L630.87 96.59L596.66 96.59L596.66 110.67ZM700.50 108.47L700.50 87.35L719.75 87.35L719.75 119.25Q713.15 123.98 704.57 126.51Q695.99 129.04 687.41 129.04L687.41 129.04Q675.31 129.04 665.63 123.92Q655.95 118.81 650.45 109.68Q644.95 100.55 644.95 89L644.95 89Q644.95 77.45 650.45 68.32Q655.95 59.19 665.74 54.08Q675.53 48.96 687.85 48.96L687.85 48.96Q698.63 48.96 707.21 52.59Q715.79 56.22 721.51 63.04L721.51 63.04L707.65 75.58Q699.84 67 688.95 67L688.95 67Q679.05 67 673.00 73.00Q666.95 78.99 666.95 89L666.95 89Q666.95 95.38 669.70 100.39Q672.45 105.39 677.40 108.19Q682.35 111 688.73 111L688.73 111Q695.00 111 700.50 108.47L700.50 108.47ZM733.61 127.50L733.61 50.50L755.39 50.50L755.39 127.50L733.61 127.50ZM809.73 129.04Q797.52 129.04 787.78 123.87Q778.05 118.70 772.49 109.57Q766.94 100.44 766.94 89L766.94 89Q766.94 77.56 772.49 68.43Q778.05 59.30 787.78 54.13Q797.52 48.96 809.73 48.96L809.73 48.96Q821.94 48.96 831.67 54.13Q841.41 59.30 846.96 68.43Q852.52 77.56 852.52 89L852.52 89Q852.52 100.44 846.96 109.57Q841.41 118.70 831.67 123.87Q821.94 129.04 809.73 129.04L809.73 129.04ZM809.73 111Q815.56 111 820.29 108.25Q825.02 105.50 827.77 100.50Q830.52 95.49 830.52 89L830.52 89Q830.52 82.51 827.77 77.50Q825.02 72.50 820.29 69.75Q815.56 67 809.73 67L809.73 67Q803.90 67 799.17 69.75Q794.44 72.50 791.69 77.50Q788.94 82.51 788.94 89L788.94 89Q788.94 95.49 791.69 100.50Q794.44 105.50 799.17 108.25Q803.90 111 809.73 111L809.73 111ZM915.88 50.50L937.22 50.50L937.22 127.50L919.29 127.50L885.30 86.47L885.30 127.50L863.96 127.50L863.96 50.50L881.89 50.50L915.88 91.53L915.88 50.50ZM1009.27 110.23L1049.75 110.23L1049.75 127.50L980.78 127.50L980.78 113.86L1019.61 67.77L981.77 67.77L981.77 50.50L1048.10 50.50L1048.10 64.14L1009.27 110.23ZM1094.85 129.04Q1077.69 129.04 1068.17 119.69Q1058.66 110.34 1058.66 93.18L1058.66 93.18L1058.66 50.50L1080.44 50.50L1080.44 92.52Q1080.44 111 1095.07 111L1095.07 111Q1109.59 111 1109.59 92.52L1109.59 92.52L1109.59 50.50L1131.04 50.50L1131.04 93.18Q1131.04 110.34 1121.52 119.69Q1112.01 129.04 1094.85 129.04L1094.85 129.04ZM1083.41 44.34Q1079.67 44.34 1077.19 41.97Q1074.72 39.61 1074.72 35.76L1074.72 35.76Q1074.72 31.91 1077.19 29.49Q1079.67 27.07 1083.41 27.07L1083.41 27.07Q1087.15 27.07 1089.63 29.49Q1092.10 31.91 1092.10 35.76L1092.10 35.76Q1092.10 39.61 1089.63 41.97Q1087.15 44.34 1083.41 44.34L1083.41 44.34ZM1106.73 44.34Q1102.99 44.34 1100.51 41.97Q1098.04 39.61 1098.04 35.76L1098.04 35.76Q1098.04 31.91 1100.51 29.49Q1102.99 27.07 1106.73 27.07L1106.73 27.07Q1110.47 27.07 1112.94 29.49Q1115.42 31.91 1115.42 35.76L1115.42 35.76Q1115.42 39.61 1112.94 41.97Q1110.47 44.34 1106.73 44.34L1106.73 44.34ZM1193.41 127.50L1179.44 107.04L1167.56 107.04L1167.56 127.50L1145.78 127.50L1145.78 50.50L1180.98 50.50Q1191.43 50.50 1199.13 53.97Q1206.83 57.43 1211.01 63.87Q1215.19 70.30 1215.19 78.99L1215.19 78.99Q1215.19 87.35 1211.28 93.56Q1207.38 99.78 1200.12 103.30L1200.12 103.30L1216.73 127.50L1193.41 127.50ZM1193.19 78.99Q1193.19 73.60 1189.78 70.63Q1186.37 67.66 1179.66 67.66L1179.66 67.66L1167.56 67.66L1167.56 90.21L1179.66 90.21Q1186.37 90.21 1189.78 87.30Q1193.19 84.38 1193.19 78.99L1193.19 78.99ZM1227.18 127.50L1227.18 50.50L1248.96 50.50L1248.96 127.50L1227.18 127.50ZM1302.86 129.04Q1290.76 129.04 1281.13 123.92Q1271.51 118.81 1266.01 109.68Q1260.51 100.55 1260.51 89L1260.51 89Q1260.51 77.45 1266.01 68.32Q1271.51 59.19 1281.13 54.08Q1290.76 48.96 1302.86 48.96L1302.86 48.96Q1313.42 48.96 1321.89 52.70Q1330.36 56.44 1335.97 63.48L1335.97 63.48L1322.11 76.02Q1314.63 67 1303.96 67L1303.96 67Q1297.69 67 1292.80 69.75Q1287.90 72.50 1285.20 77.50Q1282.51 82.51 1282.51 89L1282.51 89Q1282.51 95.49 1285.20 100.50Q1287.90 105.50 1292.80 108.25Q1297.69 111 1303.96 111L1303.96 111Q1314.63 111 1322.11 101.98L1322.11 101.98L1335.97 114.52Q1330.36 121.56 1321.89 125.30Q1313.42 129.04 1302.86 129.04L1302.86 129.04ZM1397.13 50.50L1418.91 50.50L1418.91 127.50L1397.13 127.50L1397.13 97.47L1367.43 97.47L1367.43 127.50L1345.65 127.50L1345.65 50.50L1367.43 50.50L1367.43 79.43L1397.13 79.43L1397.13 50.50Z"/></svg>